<?xml version="1.0" standalone="no"?>
<!DOCTYPE svg PUBLIC "-//W3C//DTD SVG 20010904//EN"
 "http://www.w3.org/TR/2001/REC-SVG-20010904/DTD/svg10.dtd">
<svg version="1.0" xmlns="http://www.w3.org/2000/svg"
 width="967.000000pt" height="1280.000000pt" viewBox="0 0 967.000000 1280.000000"
 preserveAspectRatio="xMidYMid meet">
<metadata>
Created by potrace 1.15, written by Peter Selinger 2001-2017
</metadata>
<g transform="translate(0.000000,1280.000000) scale(0.100000,-0.100000)"
fill="#000000" stroke="none">
<path d="M48 12785 c-60 -34 -61 -145 -5 -292 29 -75 166 -356 153 -313 -3 8
-21 64 -41 123 -59 180 -77 293 -55 351 11 30 57 56 99 56 44 0 130 -35 172
-70 88 -72 121 -156 199 -504 80 -358 114 -457 205 -606 116 -187 273 -366
438 -499 42 -34 77 -60 77 -56 0 3 -32 42 -71 88 -92 106 -257 324 -342 454
-131 198 -166 280 -207 482 -33 161 -117 479 -147 554 -44 113 -110 173 -239
217 -80 28 -200 36 -236 15z"/>
<path d="M276 12020 c26 -88 34 -132 34 -188 0 -69 -6 -84 -57 -151 -60 -79
-48 -96 118 -170 108 -48 233 -142 291 -218 85 -113 263 -474 440 -893 53
-124 98 -234 102 -244 3 -10 8 -17 10 -15 7 7 -74 301 -128 464 -130 389 -251
601 -463 811 -136 134 -186 163 -281 164 -55 0 -52 25 13 88 57 57 57 57 53
107 -3 28 -17 75 -32 105 -34 68 -111 176 -100 140z"/>
<path d="M3860 11173 c-14 -2 -57 -20 -96 -38 -110 -53 -176 -138 -213 -275
l-20 -75 32 40 c147 185 276 267 417 267 167 -1 357 -118 433 -268 62 -123
136 -436 138 -582 l1 -77 19 70 c52 193 25 434 -75 650 -46 99 -94 149 -190
197 -137 69 -209 90 -321 93 -55 2 -111 1 -125 -2z"/>
<path d="M2990 11092 c-38 -39 -71 -96 -153 -264 -143 -289 -162 -307 -217
-198 -34 67 -57 86 -131 105 -64 17 -260 38 -314 33 -36 -3 -29 -7 110 -62
222 -88 284 -118 346 -170 54 -44 85 -55 123 -40 24 9 71 90 126 217 104 243
129 280 201 301 86 26 155 0 258 -98 53 -50 61 -55 45 -28 -40 69 -131 177
-178 211 -39 28 -60 36 -108 39 l-59 4 -49 -50z"/>
<path d="M1400 10788 c0 -2 29 -48 64 -101 136 -207 259 -491 340 -787 l15
-55 -5 55 c-38 387 -177 704 -376 861 -21 17 -38 29 -38 27z"/>
<path d="M686 10688 c-10 -92 -9 -317 3 -408 40 -304 159 -550 365 -755 144
-144 308 -245 601 -370 381 -163 673 -237 870 -219 97 8 83 16 -70 39 -318 47
-666 168 -913 317 -224 136 -432 316 -560 487 -162 216 -264 520 -280 838 -7
134 -8 136 -16 71z"/>
<path d="M2957 10627 c-43 -83 -105 -173 -159 -233 -155 -168 -313 -148 -459
59 -27 38 -49 64 -49 56 0 -25 26 -113 43 -145 53 -103 253 -196 356 -166 97
30 183 154 272 395 16 44 28 81 27 83 -2 1 -16 -21 -31 -49z"/>
<path d="M3682 10452 l-53 -17 33 -31 c65 -62 126 -76 213 -49 19 5 20 1 22
-63 1 -41 11 -94 25 -133 21 -59 26 -65 65 -78 34 -12 44 -13 57 -2 24 20 19
37 -14 51 -50 21 -60 48 -60 158 0 84 -3 103 -20 125 -42 53 -166 71 -268 39z"/>
<path d="M4192 10441 c-47 -12 -59 -26 -41 -47 22 -27 101 -74 123 -74 29 0
128 59 124 73 -11 35 -138 65 -206 48z"/>
<path d="M3431 10410 c-3 -60 22 -364 38 -460 19 -113 37 -157 101 -259 24
-38 40 -77 40 -95 0 -71 -62 -148 -170 -210 l-45 -27 55 7 c118 15 218 62 246
117 32 62 25 84 -104 317 -47 84 -100 292 -150 580 -5 30 -10 44 -11 30z"/>
<path d="M3830 9926 c0 -4 9 -23 19 -44 27 -52 65 -85 99 -84 45 1 271 96 259
108 -3 3 -52 -2 -111 -11 -103 -15 -107 -15 -163 6 -70 26 -103 34 -103 25z"/>
<path d="M1378 9808 c46 -57 263 -177 397 -221 118 -39 192 -47 485 -57 146
-5 274 -11 285 -14 11 -2 56 -10 100 -16 119 -18 311 -58 480 -100 131 -34
147 -36 125 -18 -40 32 -108 63 -212 97 -185 59 -293 76 -974 156 -297 34
-536 94 -653 162 -26 15 -40 20 -33 11z"/>
<path d="M4350 9696 c-107 -37 -156 -71 -186 -128 -47 -90 25 -222 174 -319
177 -116 769 -371 1057 -455 178 -52 289 -62 865 -73 283 -6 560 -13 615 -16
233 -11 733 -153 1194 -338 63 -26 116 -45 118 -43 6 6 -362 185 -487 237
-260 107 -562 196 -815 239 -125 21 -410 29 -695 20 -458 -14 -657 10 -1013
126 -314 102 -660 256 -783 347 -87 64 -116 106 -122 172 -6 71 21 126 94 195
30 29 54 54 52 56 -2 1 -33 -7 -68 -20z"/>
<path d="M3530 9120 c-7 -30 -15 -93 -17 -140 -6 -107 18 -180 77 -234 128
-115 267 -112 453 11 80 53 279 214 273 220 -2 2 -40 -22 -86 -53 -162 -108
-278 -154 -390 -154 -83 0 -130 20 -178 75 -55 61 -74 107 -102 245 l-17 85
-13 -55z"/>
<path d="M1535 8865 c244 -731 487 -1370 626 -1647 34 -67 116 -217 182 -333
207 -361 292 -554 412 -940 131 -423 280 -1112 326 -1510 7 -60 14 -105 16
-99 2 7 -10 146 -27 310 -53 506 -99 837 -165 1168 -80 403 -138 556 -323 860
-46 78 -131 229 -187 336 -56 107 -151 285 -210 395 -60 110 -134 254 -166
320 -101 213 -332 760 -425 1009 -25 66 -50 127 -55 135 -9 13 -9 12 -4 -4z"/>
<path d="M2347 8723 c-4 -3 -7 -13 -7 -20 0 -15 146 -290 312 -585 54 -98 119
-226 144 -285 44 -104 67 -143 86 -143 29 0 76 180 102 390 18 147 48 492 42
497 -2 2 -11 -40 -21 -94 -40 -222 -121 -458 -167 -487 -27 -17 -61 24 -103
124 -58 140 -263 492 -334 573 -33 37 -42 42 -54 30z"/>
<path d="M5800 8354 c-94 -6 -415 -36 -418 -39 -1 -1 131 -5 295 -8 329 -6
467 -17 681 -53 166 -27 247 -60 375 -152 95 -69 166 -106 220 -116 64 -12
255 -7 412 9 104 11 258 17 500 18 354 1 377 5 160 26 -253 24 -429 31 -555
21 -167 -13 -333 -12 -406 1 -76 14 -151 46 -260 110 -184 109 -265 140 -419
164 -96 15 -467 27 -585 19z"/>
<path d="M9070 8344 c-19 -2 -102 -11 -184 -20 -210 -22 -221 -33 -36 -34 252
-1 476 -17 559 -40 133 -37 167 -70 94 -89 -21 -5 -132 -21 -246 -35 -240 -30
-343 -59 -407 -113 -72 -62 -72 -81 4 -192 43 -63 47 -91 12 -91 -14 0 -96 23
-184 50 -88 28 -163 50 -168 50 -35 0 307 -182 385 -206 39 -11 56 -12 66 -4
16 14 11 35 -40 150 -49 110 -56 167 -24 203 41 47 116 67 488 132 200 35 262
52 275 74 24 38 -51 96 -179 138 -69 22 -100 26 -230 28 -82 2 -166 1 -185 -1z"/>
<path d="M5068 8180 c-9 -6 -27 -25 -39 -43 -21 -31 -20 -30 19 8 50 47 54 55
20 35z"/>
<path d="M4902 7996 c-153 -159 -231 -280 -378 -581 -193 -397 -325 -739 -413
-1065 -136 -511 -284 -1562 -332 -2363 -13 -224 -7 -784 10 -942 19 -168 76
-483 87 -473 2 2 -2 62 -8 133 -15 179 -15 918 1 1150 43 660 153 1487 286
2150 98 490 187 775 360 1156 55 122 390 776 446 870 16 27 27 49 25 49 -2 0
-39 -38 -84 -84z"/>
<path d="M3158 3800 c4 -296 2 -337 -17 -453 -38 -232 -29 -298 73 -523 29
-65 64 -150 76 -189 31 -99 36 -239 15 -395 -38 -290 -37 -435 5 -777 20 -157
96 -636 104 -658 8 -19 6 41 -4 100 -14 93 -38 388 -50 619 -11 206 -7 338 20
676 14 174 12 426 -4 486 -7 28 -39 96 -69 149 -32 55 -60 118 -64 144 -10 58
-10 170 1 446 11 277 -6 430 -67 626 l-24 74 5 -325z"/>
<path d="M3880 1503 c0 -328 -29 -882 -56 -1073 -35 -241 -76 -303 -213 -321
-151 -19 -380 41 -434 113 -32 43 -11 95 72 179 37 38 63 69 58 69 -4 0 -41
-15 -80 -33 -96 -45 -147 -100 -147 -160 0 -57 39 -137 86 -175 22 -18 75 -47
119 -65 76 -30 86 -32 205 -31 302 3 375 75 419 414 31 235 43 817 21 1015
-11 101 -40 275 -46 275 -2 0 -4 -93 -4 -207z"/>
</g>
</svg>
